<svg width="316" height="247" viewBox="0 0 316 247" fill="none" xmlns="http://www.w3.org/2000/svg">
<g opacity="0.08">
<circle cx="186.638" cy="7.9" r="7.9" fill="#212121"/>
<circle cx="210.338" cy="7.9" r="7.9" fill="#212121"/>
<circle cx="234.038" cy="7.9" r="7.9" fill="#212121"/>
<circle cx="257.737" cy="7.9" r="7.9" fill="#212121"/>
<circle cx="162.938" cy="31.5992" r="7.9" fill="#212121"/>
<circle cx="186.638" cy="31.5992" r="7.9" fill="#212121"/>
<circle cx="210.338" cy="31.5992" r="7.9" fill="#212121"/>
<circle cx="234.038" cy="31.5992" r="7.9" fill="#212121"/>
<circle cx="257.737" cy="31.5992" r="7.9" fill="#212121"/>
<circle cx="281.437" cy="31.5992" r="7.9" fill="#212121"/>
<circle cx="139.238" cy="55.2994" r="7.9" fill="#212121"/>
<circle cx="162.938" cy="55.2994" r="7.9" fill="#212121"/>
<circle cx="186.638" cy="55.2994" r="7.9" fill="#212121"/>
<circle cx="210.338" cy="55.2994" r="7.9" fill="#212121"/>
<circle cx="234.038" cy="55.2994" r="7.9" fill="#212121"/>
<circle cx="257.737" cy="55.2994" r="7.9" fill="#212121"/>
<circle cx="281.437" cy="55.2994" r="7.9" fill="#212121"/>
<circle cx="305.138" cy="55.2994" r="7.9" fill="#212121"/>
<circle cx="139.238" cy="79.0006" r="7.9" fill="#212121"/>
<circle cx="162.938" cy="79.0006" r="7.9" fill="#212121"/>
<circle cx="186.638" cy="79.0006" r="7.9" fill="#212121"/>
<circle cx="210.338" cy="79.0006" r="7.9" fill="#212121"/>
<circle cx="234.038" cy="79.0006" r="7.9" fill="#212121"/>
<circle cx="257.737" cy="79.0006" r="7.9" fill="#212121"/>
<circle cx="281.437" cy="79.0006" r="7.9" fill="#212121"/>
<circle cx="305.138" cy="79.0006" r="7.9" fill="#212121"/>
<circle cx="139.238" cy="102.701" r="7.9" fill="#212121"/>
<circle cx="162.938" cy="102.701" r="7.9" fill="#212121"/>
<circle cx="186.638" cy="102.701" r="7.9" fill="#212121"/>
<circle cx="210.338" cy="102.701" r="7.9" fill="#212121"/>
<circle cx="234.038" cy="102.701" r="7.9" fill="#212121"/>
<circle cx="257.737" cy="102.701" r="7.9" fill="#212121"/>
<circle cx="281.437" cy="102.701" r="7.9" fill="#212121"/>
<circle cx="305.138" cy="102.701" r="7.9" fill="#212121"/>
<circle cx="139.238" cy="126.4" r="7.9" fill="#212121"/>
<circle cx="162.938" cy="126.4" r="7.9" fill="#212121"/>
<circle cx="186.638" cy="126.4" r="7.9" fill="#212121"/>
<circle cx="210.338" cy="126.4" r="7.9" fill="#212121"/>
<circle cx="234.038" cy="126.4" r="7.9" fill="#212121"/>
<circle cx="257.737" cy="126.4" r="7.9" fill="#212121"/>
<circle cx="281.437" cy="126.4" r="7.9" fill="#212121"/>
<circle cx="305.138" cy="126.4" r="7.9" fill="#212121"/>
<circle cx="162.938" cy="150.099" r="7.9" fill="#212121"/>
<circle cx="186.638" cy="150.099" r="7.9" fill="#212121"/>
<circle cx="210.338" cy="150.099" r="7.9" fill="#212121"/>
<circle cx="234.038" cy="150.099" r="7.9" fill="#212121"/>
<circle cx="257.737" cy="150.099" r="7.9" fill="#212121"/>
<circle cx="281.437" cy="150.099" r="7.9" fill="#212121"/>
<circle cx="186.638" cy="173.799" r="7.9" fill="#212121"/>
<circle cx="210.338" cy="173.799" r="7.9" fill="#212121"/>
<circle cx="234.038" cy="173.799" r="7.9" fill="#212121"/>
<circle cx="257.737" cy="173.799" r="7.9" fill="#212121"/>
</g>
<g clip-path="url(#clip0_14_267)">
<path opacity="0.08" d="M13.8528 208.783C13.8528 208.783 22.2784 200.269 71.875 197.451C121.472 194.633 281.603 192.915 305.351 196.098C329.1 199.282 312.116 238.286 264.441 243.912C216.765 249.537 149.345 240.238 92.3519 245.489C35.3596 250.741 -28.7625 232.081 13.8528 208.783Z" fill="#212121"/>
<path d="M263.098 111.86C267.119 112.025 259.245 116.785 250.03 118.741C240.813 120.694 242.787 126.803 236.962 126.145C230.185 125.38 224.879 125.443 220.666 125.996C218.801 126.242 216.783 126.631 214.622 126.957C221.168 125.904 227.007 121.517 215.663 122.137C204.102 122.769 204.134 120.839 203.566 122.594C202.8 124.966 197.769 125.089 193.991 127.512L193.886 127.349C193.886 127.349 193.777 125.716 193.092 123.628C193.092 123.628 209.484 116.361 227.243 114.361C245.003 112.36 259.076 111.692 263.098 111.86Z" fill="white"/>
<path d="M212.206 184.009C221.045 193.376 221.314 205.24 218.016 209.013H218.001C217.393 194.694 195.541 179.309 182.972 169.389C181.816 168.477 180.74 167.612 179.765 166.799V166.797C179.765 166.797 182.897 166.277 185.837 165.256C188.78 164.239 189.285 161.696 189.285 161.696C195.31 167.404 207.549 179.073 212.206 184.009Z" fill="#FF4081"/>
<path d="M147.85 185.716C146.219 183.566 144.669 181.398 143.203 179.233C144.671 180.18 151.065 183.571 164.525 181.383C180.066 178.858 184.772 170.827 182.972 169.389C195.541 179.308 217.393 194.693 218.001 209.013C218.109 211.526 217.564 214.003 216.2 216.413C204.83 236.497 166.971 228.531 166.971 228.531C161.035 216.851 160.555 200.406 160.555 200.406C157.468 197.296 154.518 194.013 151.746 190.648C150.404 189.019 149.104 187.375 147.85 185.716Z" fill="#FF4081"/>
<path d="M166.971 228.531C166.971 228.531 159.389 225.567 151.195 224.611C150.271 224.503 149.142 224.371 147.852 224.225C147.852 224.225 152.899 203.735 151.745 190.647C154.517 194.013 157.467 197.296 160.554 200.406C160.555 200.407 161.035 216.852 166.971 228.531Z" fill="white"/>
<path d="M151.746 190.648C152.9 203.735 147.854 224.226 147.854 224.226C137.72 223.076 117.582 221.04 107.021 222.815C95.1144 224.815 77.8856 224.771 77.8856 224.771C91.6426 223.471 83.965 213.294 83.965 213.294C101.821 208.715 124.564 199.364 128.072 193.195C129.195 191.22 129.877 187.924 130.268 183.946L130.901 184.008L147.85 185.716C149.104 187.375 150.404 189.019 151.746 190.648Z" fill="#212121"/>
<path d="M66.7146 223.11C69.2878 225.28 55.0906 226.19 42.6228 227.188C30.155 228.186 21.9167 223.565 25.9374 220.19C29.9581 216.814 35.7384 212.314 32.8488 205.063C29.9581 197.812 28.0737 180.309 31.906 174.828C35.7384 169.345 40.3423 168.315 40.3423 168.315C40.3423 168.315 42.4355 164.48 50.9074 166.313C54.7602 167.148 54.5309 169.215 54.5309 169.215C52.6411 168.193 50.5027 167.553 48.2158 167.405C46.9437 167.322 45.6975 167.397 44.4986 167.612C44.4986 167.612 47.3409 172.144 45.6652 176.582C43.9917 181.018 40.8245 188.394 41.7425 192.776C41.7425 192.776 36.3615 193.177 37.8843 196.289C39.1833 198.94 45.2509 196.765 45.2509 196.765C45.2509 196.765 52.0815 199.485 53.2632 206.259C53.0544 206.909 52.9113 207.577 52.8381 208.264C51.9771 216.379 59.5094 220.915 66.7146 223.11Z" fill="#212121"/>
<path d="M57.8198 184.214L57.8123 184.179C57.8123 184.179 58.1696 181.301 62.5324 182.089H62.5346C62.5497 182.587 62.5421 183.091 62.5099 183.6C62.47 184.232 62.3893 184.854 62.2731 185.463H62.2709C62.2709 185.463 60.7255 188.103 56.1614 187.925C55.1358 187.886 54.2608 187.605 53.5656 187.185V187.182C53.5656 187.182 54.3867 184.917 57.8198 184.214Z" fill="#FF4081"/>
<path d="M58.7076 172.524C57.3677 172.685 55.5156 172.919 53.9799 172.499C53.9799 172.499 54.9173 170.304 56.0311 170.142C57.0158 170.829 57.9134 171.629 58.7076 172.524Z" fill="white"/>
<path d="M62.5346 182.089H62.5325C58.1696 181.301 57.8123 184.179 57.8123 184.179L57.8198 184.215C54.3868 184.917 53.5646 187.183 53.5646 187.183V187.186C51.1668 185.74 50.9279 182.637 54.1952 182.08C58.4074 181.359 61.4455 177.084 61.4455 177.084L61.4907 177.066C62.1128 178.636 62.4744 180.329 62.5346 182.089Z" fill="#212121"/>
<path d="M60.718 189.83C60.718 189.83 61.0527 192.521 61.6155 193.293C61.9298 193.72 63.3568 192.435 65.2294 190.595C66.7393 190.055 79.7333 185.399 85.7622 182.508C86.4682 182.169 87.1796 181.818 87.8888 181.466C88.3354 181.578 92.6057 182.75 91.5532 187.181C72.2118 191.497 56.198 197.085 53.2653 206.257C52.0836 199.484 45.253 196.763 45.253 196.763C45.253 196.763 39.1865 198.939 37.8864 196.288C36.3636 193.175 41.7446 192.775 41.7446 192.775C40.8277 188.391 43.9939 181.015 45.6674 176.58C47.3441 172.142 44.5008 167.611 44.5008 167.611C45.6996 167.395 46.9459 167.32 48.2179 167.403C50.5049 167.551 52.6433 168.191 54.5331 169.213C55.0507 169.494 55.5512 169.803 56.0311 170.142C54.9184 170.304 53.9799 172.499 53.9799 172.499C55.5156 172.919 57.3678 172.685 58.7077 172.524C59.7408 172.399 60.4715 172.318 60.52 172.614C60.5673 172.912 60.3467 173.627 60.083 174.329C60.6405 175.187 61.1162 176.102 61.4929 177.065L61.4476 177.082C61.4476 177.082 58.4095 181.357 54.1973 182.078C50.93 182.636 51.1689 185.739 53.5666 187.184C54.2629 187.604 55.1379 187.885 56.1624 187.924C60.7266 188.102 62.272 185.462 62.272 185.462H62.2742C61.9771 187.019 61.4444 188.487 60.718 189.83Z" fill="white"/>
<path d="M110.617 179.509L109.873 183.527C103.641 184.669 97.4434 185.868 91.5522 187.182C92.6058 182.752 88.3355 181.579 87.8878 181.467C93.6056 178.626 99.2998 175.621 103.348 176.733C107.756 177.943 110.617 179.509 110.617 179.509Z" fill="#212121"/>
<path d="M87.8888 181.465C87.1796 181.817 86.4683 182.168 85.7623 182.508C79.7334 185.399 66.7393 190.054 65.2294 190.594C66.7221 189.124 68.4989 187.301 70.2176 185.716C74.093 182.141 111.919 169.389 111.919 169.389L112.473 169.491L110.618 179.508C110.618 179.508 107.756 177.943 103.35 176.733C99.3009 175.62 93.6056 178.626 87.8888 181.465Z" fill="white"/>
<path d="M136.16 167.152C138.454 177.946 130.394 182.509 130.394 182.509C131.483 168.665 129.527 147.989 130.377 144.418C130.492 143.931 130.588 143.366 130.661 142.74C131.832 142.763 133.001 142.758 134.132 142.716V142.74C134.132 142.74 130.114 153.202 136.16 167.146C136.16 167.15 136.16 167.15 136.16 167.152Z" fill="white"/>
<path d="M53.2643 206.257C56.1969 197.085 72.2108 191.497 91.5522 187.181C97.4434 185.866 103.641 184.668 109.873 183.526L110.617 179.507L112.471 169.491L116.676 146.782C116.676 146.782 115.857 144.069 114.598 143.228C113.337 142.385 112.784 141.052 112.784 141.052L112.778 140.997C112.966 140.984 113.072 140.976 113.072 140.976C113.072 140.976 114.296 141.192 116.261 141.474C116.21 139.431 116.065 131.615 116.585 128.245C116.698 127.527 116.839 127.012 117.017 126.795C118.169 125.405 118.948 128.075 118.948 128.075C118.948 128.075 118.953 125.823 121.416 125.422C121.803 125.36 122.248 125.342 122.765 125.385C126.578 125.707 127.925 128.003 127.925 128.003C127.925 128.003 129.473 127.278 130.006 127.315C130.109 127.323 130.224 127.78 130.343 128.548C130.77 131.377 131.175 138.431 130.659 142.738C130.586 143.363 130.491 143.927 130.375 144.416C129.526 147.986 131.481 168.662 130.392 182.506C130.355 182.995 130.312 183.474 130.266 183.944C129.875 187.922 129.193 191.218 128.07 193.193C124.561 199.361 101.819 208.713 83.9629 213.291C83.9629 213.291 91.6405 223.468 77.8834 224.769C75.8333 224.961 71.3391 224.518 66.7125 223.108C59.5073 220.913 51.975 216.376 52.837 208.26C52.9124 207.575 53.0555 206.907 53.2643 206.257Z" fill="white"/>
<path d="M129.158 118.894V118.896C128.198 119.279 125.727 119.839 126.096 118.896C126.468 117.954 126.096 116.514 126.096 116.514C127.001 117.438 128.029 118.241 129.158 118.894Z" fill="white"/>
<path d="M122.077 106.17C121.12 106.49 120.22 106.71 119.682 106.638C118.089 106.426 123.602 100.687 123.602 100.687C123.602 100.687 121.276 99.9717 122.321 98.4963C123.364 97.0187 126.723 96.1589 126.723 96.1589C126.723 96.1589 125.464 94.5036 126.723 93.7916C127.983 93.0817 132.85 92.8868 132.85 92.8868C133.959 92.6116 135.12 92.4639 136.316 92.4639C144.187 92.4639 150.566 98.81 150.566 106.638C150.566 108.698 150.123 110.654 149.329 112.421C148 112.166 146.396 112.013 144.695 112.183C143.23 112.331 141.689 112.719 140.191 113.494C136.997 115.144 135.26 117.574 134.396 120.687C132.506 120.432 130.733 119.809 129.156 118.894C128.027 118.242 126.999 117.439 126.094 116.514C123.604 113.962 122.068 110.478 122.068 106.638C122.07 106.482 122.073 106.324 122.077 106.17Z" fill="white"/>
<path d="M132.216 123.428L133.931 122.958C133.688 124.656 133.624 126.516 133.673 128.529H130.503L130.345 128.551C130.227 127.783 130.111 127.326 130.008 127.319C129.475 127.281 127.927 128.006 127.927 128.006C127.927 128.006 126.579 125.711 122.767 125.388C122.25 125.345 121.805 125.364 121.418 125.426L121.408 125.364C121.408 125.364 121.167 123.98 121.606 122.928C121.712 122.665 121.862 122.426 122.071 122.23C123.112 121.252 125.446 122.769 125.446 122.769C125.446 122.769 128.346 120.672 130.394 121.857C132.442 123.037 132.216 123.428 132.216 123.428Z" fill="white"/>
<path d="M121.603 122.928H121.605C121.165 123.98 121.407 125.364 121.407 125.364L121.417 125.426C118.953 125.826 118.949 128.079 118.949 128.079C118.949 128.079 118.17 125.409 117.018 126.799C116.84 127.016 116.7 127.531 116.586 128.248L116.409 128.239C116.409 128.239 113.443 126.525 111.843 126.153L112.554 126.121C112.496 123.935 117.098 124.505 117.098 124.505C115.572 123.917 115.213 122.057 116.829 122.482C118.446 122.908 121.603 122.928 121.603 122.928Z" fill="white"/>
<path d="M116.41 128.238L116.587 128.248C116.067 131.618 116.212 139.435 116.263 141.477C114.298 141.195 113.074 140.98 113.074 140.98C113.074 140.98 112.969 140.987 112.78 141C111.499 141.085 106.399 141.365 105.376 140.578C104.202 139.678 102.74 131.666 104.751 131.112C106.761 130.554 112.627 129.864 112.627 129.864C112.627 129.864 110.059 126.548 111.044 126.129C111.22 126.054 111.502 126.074 111.846 126.153C113.445 126.525 116.41 128.238 116.41 128.238Z" fill="white"/>
<path d="M193.99 127.511C197.768 125.088 202.799 124.965 203.565 122.593C204.133 120.838 204.1 122.767 215.661 122.136C227.006 121.516 221.168 125.903 214.621 126.956C214.495 126.976 214.372 126.996 214.246 127.014C207.557 127.959 205.289 138.556 195.375 141.506C187.645 143.807 177.428 135.828 173.299 132.199C159.059 133.812 147.853 134.945 147.853 134.945C146.936 137.154 145.504 139.315 143.277 140.791C141.377 142.049 137.949 142.583 134.132 142.716C133.001 142.759 131.832 142.763 130.661 142.74C131.177 138.435 130.772 131.381 130.345 128.55L130.503 128.528H133.672C133.625 126.515 133.687 124.655 133.931 122.957C134.046 122.164 134.2 121.406 134.398 120.687C135.262 117.574 136.999 115.144 140.193 113.494C141.691 112.719 143.232 112.331 144.697 112.183C146.398 112.013 148.002 112.166 149.331 112.421C151.467 112.826 152.898 113.494 152.898 113.494C163.586 116.22 162.744 117.747 178.125 115.117C187.993 113.43 191.711 119.443 193.09 123.628C193.776 125.716 193.885 127.349 193.885 127.349L193.99 127.511Z" fill="#FFA000"/>
<path d="M189.286 161.695C189.286 161.695 188.78 164.238 185.838 165.255C182.898 166.276 179.766 166.796 179.766 166.796V166.798C177.711 165.081 176.109 163.59 175.183 162.377C178.573 161.447 182.179 160.064 185.838 158.434C185.838 158.435 187.182 159.702 189.286 161.695Z" fill="white"/>
<path d="M175.181 162.379C176.109 163.592 177.709 165.082 179.765 166.8C180.74 167.612 181.816 168.477 182.972 169.39C184.771 170.828 180.066 178.859 164.525 181.384C151.064 183.571 144.67 180.181 143.203 179.234C141.69 177.001 140.267 174.773 138.951 172.57C137.843 170.717 136.92 168.907 136.158 167.152C136.158 167.15 136.158 167.15 136.158 167.146C130.111 153.201 134.131 142.741 134.131 142.741V142.716C137.948 142.583 141.376 142.049 143.276 140.791C145.503 139.315 146.935 137.156 147.852 134.945C147.852 134.945 159.059 133.812 173.298 132.199C177.427 135.827 187.644 143.806 195.374 141.506C205.289 138.556 207.556 127.959 214.245 127.014C214.371 126.997 214.494 126.976 214.62 126.956C216.781 126.631 218.804 126.277 220.664 125.996C223.099 125.627 227.824 126.157 236.96 126.145C252.011 126.127 265.123 127.677 267.98 129.407C272.571 132.185 259.521 134.06 253.112 136.118C246.706 138.176 239.018 142.279 234.117 143.071C229.216 143.867 226.138 140.251 226.138 140.251C226.138 140.251 230.698 136.664 218.816 141.505C211.274 144.576 198.235 152.917 185.838 158.435C182.179 160.066 178.571 161.448 175.181 162.379Z" fill="white"/>
<path d="M134.398 121.313C134.37 121.313 134.342 121.311 134.313 121.307C132.372 121.046 130.532 120.415 128.841 119.435C127.674 118.759 126.599 117.924 125.646 116.951C122.934 114.172 121.441 110.509 121.441 106.639C121.441 106.477 121.444 106.312 121.449 106.15C121.461 105.806 121.75 105.532 122.098 105.546C122.444 105.558 122.717 105.846 122.705 106.192C122.7 106.34 122.697 106.491 122.697 106.639C122.697 110.183 124.064 113.536 126.546 116.08C127.418 116.971 128.402 117.736 129.472 118.355C131.021 119.254 132.705 119.83 134.481 120.07C134.824 120.116 135.065 120.431 135.019 120.773C134.978 121.085 134.708 121.313 134.398 121.313Z" fill="#212121"/>
<path d="M149.33 113.047C149.244 113.047 149.157 113.029 149.074 112.992C148.757 112.851 148.615 112.481 148.756 112.166C149.541 110.421 149.938 108.561 149.938 106.638C149.938 99.1669 143.827 93.0885 136.317 93.0885C135.198 93.0885 134.084 93.2245 133.003 93.4921C132.665 93.5757 132.325 93.3722 132.241 93.0371C132.157 92.702 132.362 92.3625 132.698 92.279C133.879 91.9867 135.096 91.8379 136.318 91.8379C144.522 91.8379 151.196 98.4774 151.196 106.637C151.196 108.737 150.761 110.769 149.905 112.676C149.8 112.908 149.57 113.047 149.33 113.047Z" fill="#212121"/>
<path d="M51.4013 197.902C51.1269 197.902 50.8761 197.722 50.7976 197.447C50.7029 197.115 50.8966 196.769 51.2302 196.675C55.0313 195.602 58.2879 192.999 60.1648 189.533C60.8751 188.219 61.3777 186.81 61.6564 185.346C61.7683 184.756 61.8448 184.155 61.8824 183.56C61.9136 183.081 61.9212 182.593 61.9061 182.108C61.8491 180.449 61.5133 178.828 60.9063 177.294C60.5501 176.385 60.0949 175.503 59.5535 174.67C59.3652 174.379 59.4481 173.993 59.7397 173.805C60.0303 173.618 60.4199 173.701 60.6082 173.991C61.1958 174.894 61.6898 175.853 62.0761 176.839C62.7348 178.504 63.0996 180.264 63.162 182.068C63.1782 182.594 63.1696 183.122 63.1362 183.64C63.0953 184.286 63.0124 184.939 62.8897 185.579C62.5873 187.169 62.0428 188.699 61.2701 190.126C59.2328 193.889 55.6986 196.713 51.5724 197.878C51.5154 197.894 51.4584 197.902 51.4013 197.902Z" fill="#212121"/>
<path d="M58.7077 173.15C58.5334 173.15 58.3612 173.078 58.2363 172.939C57.4733 172.079 56.6102 171.31 55.6696 170.654C55.2079 170.33 54.7258 170.031 54.2318 169.763C52.3592 168.75 50.322 168.167 48.176 168.028C46.9793 167.949 45.7804 168.017 44.6117 168.227C44.2694 168.288 43.9434 168.062 43.882 167.722C43.8207 167.383 44.0477 167.058 44.3889 166.997C45.6588 166.768 46.961 166.696 48.2578 166.78C50.5867 166.93 52.7994 167.565 54.8323 168.665C55.3683 168.955 55.8934 169.28 56.3928 169.632C57.412 170.342 58.3493 171.178 59.178 172.111C59.4072 172.37 59.3825 172.765 59.1231 172.994C59.0037 173.098 58.8551 173.15 58.7077 173.15Z" fill="#212121"/>
<path d="M116.459 142.131C116.427 142.131 116.396 142.128 116.364 142.123L116.166 142.095C114.492 141.854 113.339 141.659 113.04 141.608L112.82 141.623C109.832 141.821 106.049 141.886 104.99 141.072C103.786 140.149 102.748 134.933 103.256 132.353C103.459 131.315 103.906 130.695 104.581 130.509C106.106 130.086 109.692 129.601 111.49 129.374C110.802 128.372 110.02 127.006 110.226 126.215C110.306 125.911 110.507 125.676 110.794 125.554C111.091 125.427 111.469 125.425 111.985 125.545C113.658 125.935 116.6 127.627 116.724 127.698C117.025 127.872 117.127 128.254 116.953 128.553C116.778 128.852 116.394 128.953 116.094 128.78C116.065 128.763 113.19 127.109 111.7 126.763C111.606 126.741 111.531 126.727 111.47 126.719C111.615 127.255 112.311 128.434 113.122 129.483C113.26 129.661 113.291 129.9 113.203 130.107C113.116 130.315 112.922 130.46 112.698 130.485C112.64 130.492 106.858 131.176 104.916 131.715C104.795 131.748 104.612 131.99 104.495 132.562C103.983 135.056 105.201 139.642 105.758 140.083C106.208 140.429 108.748 140.641 112.736 140.377L113.027 140.357C113.078 140.354 113.13 140.356 113.181 140.365C113.192 140.367 114.419 140.582 116.35 140.86L116.55 140.887C116.893 140.939 117.129 141.257 117.079 141.598C117.032 141.908 116.764 142.131 116.459 142.131Z" fill="#212121"/>
<path d="M131.994 143.379C131.554 143.379 131.106 143.375 130.648 143.366C130.302 143.36 130.025 143.074 130.032 142.729C130.038 142.388 130.318 142.115 130.66 142.115C130.664 142.115 130.669 142.115 130.672 142.115C131.891 142.139 133.047 142.13 134.107 142.091C138.358 141.943 141.326 141.331 142.929 140.27C144.791 139.036 146.252 137.164 147.272 134.705C148.988 130.575 148.863 126.192 148.861 126.148C148.849 125.803 149.121 125.514 149.468 125.502C149.812 125.492 150.105 125.76 150.117 126.105C150.123 126.295 150.257 130.794 148.434 135.182C147.316 137.873 145.698 139.935 143.625 141.309C141.826 142.5 138.639 143.183 134.154 143.339C133.469 143.366 132.747 143.379 131.994 143.379Z" fill="#212121"/>
<path d="M76.8416 225.438C74.3803 225.438 70.4188 224.893 66.5305 223.708C63.5699 222.807 59.3975 221.148 56.3282 218.37C53.1835 215.522 51.7995 212.1 52.2139 208.198C52.2892 207.481 52.4409 206.764 52.6648 206.068C55.9763 195.713 75.1132 190.211 91.4144 186.572C96.4628 185.445 102.004 184.337 109.334 182.99L116.03 146.823C115.773 146.037 115.071 144.299 114.248 143.749C112.845 142.812 112.228 141.355 112.203 141.293C112.071 140.974 112.224 140.609 112.544 140.477C112.865 140.345 113.232 140.497 113.365 140.815C113.379 140.848 113.88 141.998 114.949 142.712C116.354 143.65 117.188 146.305 117.279 146.604C117.308 146.699 117.313 146.8 117.295 146.897L110.491 183.64C110.444 183.895 110.244 184.095 109.987 184.141C102.463 185.521 96.8201 186.646 91.6899 187.792C80.745 190.234 72.5099 192.745 66.5155 195.468C59.3189 198.737 55.1799 202.328 53.8626 206.447C53.6646 207.063 53.5311 207.696 53.4644 208.328C52.5615 216.833 61.4939 220.866 66.8986 222.513C71.2819 223.849 75.7159 224.347 77.8263 224.149C81.8244 223.771 84.2824 222.61 85.1315 220.696C86.4617 217.7 83.4925 213.71 83.4624 213.67C83.2536 213.394 83.3095 213.002 83.5872 212.795C83.8649 212.589 84.2587 212.643 84.4664 212.92C84.6074 213.107 87.9049 217.544 86.2809 221.202C85.2338 223.559 82.4292 224.969 77.9447 225.393C77.624 225.423 77.2538 225.438 76.8416 225.438Z" fill="#212121"/>
<path d="M67.4141 216.638C66.6813 216.638 66.0162 216.605 65.4221 216.538C65.0777 216.499 64.8291 216.19 64.8689 215.846C64.9077 215.503 65.2165 215.255 65.5642 215.295C69.1856 215.703 75.6654 214.778 83.809 212.688C92.7307 210.401 102.95 206.88 111.145 203.269C120.16 199.298 125.977 195.611 127.526 192.888C128.514 191.151 129.227 188.122 129.644 183.885C129.689 183.42 129.731 182.944 129.769 182.46C130.375 174.75 130.034 164.947 129.761 157.071C129.536 150.602 129.373 145.927 129.767 144.273C129.877 143.81 129.968 143.27 130.038 142.667C130.525 138.598 130.177 131.643 129.724 128.641C129.681 128.36 129.643 128.157 129.612 128.013C129.249 128.12 128.698 128.334 128.195 128.57C127.901 128.708 127.549 128.599 127.384 128.319C127.337 128.24 126.121 126.297 122.714 126.009C122.274 125.972 121.872 125.983 121.518 126.041C119.603 126.351 119.578 128.008 119.578 128.078C119.576 128.389 119.346 128.652 119.037 128.696C118.727 128.74 118.434 128.55 118.346 128.252C118.188 127.715 117.867 127.13 117.681 127.028C117.653 127.044 117.593 127.088 117.505 127.194C117.493 127.21 117.354 127.415 117.209 128.344C116.684 131.746 116.853 139.868 116.892 141.461L116.905 141.957C116.915 142.302 116.642 142.59 116.294 142.599C116.289 142.599 116.282 142.599 116.277 142.599C115.938 142.599 115.658 142.33 115.649 141.991L115.636 141.491C115.597 139.88 115.427 131.661 115.968 128.152C116.111 127.244 116.285 126.704 116.534 126.401C117.056 125.771 117.576 125.724 117.92 125.794C118.284 125.869 118.581 126.107 118.819 126.401C119.256 125.683 120.028 125.016 121.318 124.806C121.773 124.732 122.279 124.718 122.82 124.762C125.879 125.02 127.488 126.468 128.131 127.227C128.731 126.971 129.574 126.658 130.054 126.692C130.673 126.737 130.804 127.391 130.968 128.454C131.376 131.157 131.831 138.265 131.288 142.812C131.212 143.461 131.112 144.05 130.992 144.56C130.637 146.051 130.813 151.138 131.019 157.027C131.293 164.934 131.636 174.775 131.024 182.555C130.986 183.047 130.943 183.531 130.897 184.004C130.456 188.478 129.712 191.584 128.622 193.501C126.467 197.289 118.206 201.525 111.657 204.411C103.402 208.047 93.1095 211.594 84.1254 213.897C77.1408 215.691 71.3272 216.638 67.4141 216.638Z" fill="#212121"/>
<path d="M56.6014 188.559C56.4497 188.559 56.2958 188.556 56.1365 188.549C55.0722 188.508 54.0702 188.221 53.2394 187.72C51.7392 186.815 50.9094 185.273 51.1742 183.882C51.4152 182.62 52.4775 181.738 54.0896 181.463C57.9994 180.795 60.9052 176.764 60.9332 176.723C61.1333 176.442 61.5261 176.374 61.8092 176.573C62.0922 176.773 62.16 177.163 61.9598 177.445C61.8296 177.628 58.7205 181.941 54.3027 182.696C53.2211 182.88 52.5485 183.384 52.4096 184.116C52.2439 184.983 52.8541 186.025 53.8916 186.651C54.5405 187.043 55.3348 187.268 56.1871 187.301C60.3305 187.463 61.7156 185.171 61.7295 185.148C61.9039 184.849 62.2892 184.748 62.5883 184.922C62.8886 185.095 62.9898 185.479 62.8154 185.776C62.7455 185.894 61.1312 188.559 56.6014 188.559Z" fill="#212121"/>
<path d="M53.5655 187.807C53.4945 187.807 53.4224 187.796 53.3524 187.77C53.0263 187.653 52.8574 187.295 52.9747 186.97C53.0134 186.864 53.9583 184.366 57.6938 183.602C58.4472 183.448 59.2791 183.376 60.1572 183.383C60.5038 183.388 60.7825 183.67 60.7782 184.015C60.7739 184.358 60.4941 184.633 60.1497 184.633C60.1476 184.633 60.1443 184.633 60.1422 184.633C59.349 184.622 58.6118 184.689 57.9457 184.826C54.8925 185.451 54.1628 187.374 54.1553 187.393C54.0638 187.649 53.8227 187.807 53.5655 187.807Z" fill="#212121"/>
<path d="M57.8133 184.805C57.7875 184.805 57.7617 184.804 57.7358 184.799C57.3915 184.758 57.1472 184.445 57.1891 184.102C57.1956 184.053 57.3506 182.897 58.4547 182.09C59.4524 181.359 60.8622 181.153 62.6455 181.474C62.9866 181.536 63.2137 181.86 63.1513 182.201C63.0889 182.54 62.7617 182.766 62.4205 182.704C61.0118 182.449 59.8979 182.585 59.1995 183.096C58.5365 183.581 58.4375 184.249 58.4365 184.256C58.3966 184.573 58.1265 184.805 57.8133 184.805Z" fill="#212121"/>
<path d="M59.3555 176.709C59.2683 176.709 59.1801 176.691 59.095 176.652C58.7797 176.509 58.6398 176.138 58.784 175.824C58.7883 175.816 59.1758 174.966 59.4932 174.113C59.688 173.595 59.7892 173.256 59.8419 173.04C59.532 173.055 59.0886 173.109 58.784 173.145L58.6979 173.156C57.3215 173.321 55.4371 173.547 53.8141 173.104C53.6398 173.055 53.4945 172.936 53.4149 172.773C53.3363 172.61 53.3309 172.423 53.402 172.257C53.5817 171.836 54.5481 169.728 55.9396 169.525C56.284 169.475 56.6015 169.712 56.6521 170.053C56.7027 170.395 56.4648 170.713 56.1215 170.762C55.7621 170.814 55.2799 171.419 54.9129 172.048C56.1344 172.204 57.499 172.04 58.5462 171.915L58.6323 171.904C59.9506 171.745 60.9945 171.619 61.1398 172.516C61.1807 172.772 61.1646 173.233 60.6706 174.549C60.338 175.443 59.9442 176.306 59.928 176.342C59.8225 176.573 59.5944 176.709 59.3555 176.709Z" fill="#212121"/>
<path d="M46.3529 180.524C46.3087 180.524 46.2646 180.52 46.2205 180.51C45.8815 180.438 45.6652 180.106 45.7384 179.768C46.2108 177.575 47.0362 176.18 48.191 175.621C49.2694 175.1 50.1884 175.515 50.2896 175.565C50.6017 175.717 50.7308 176.09 50.578 176.401C50.4273 176.708 50.0561 176.838 49.745 176.692C49.7128 176.678 49.2521 176.487 48.7173 176.756C48.1813 177.026 47.443 177.814 46.9652 180.031C46.9039 180.324 46.6434 180.524 46.3529 180.524Z" fill="#212121"/>
<path d="M50.5813 179.376C50.4543 179.376 50.3262 179.338 50.2154 179.259L49.8968 179.031C49.6148 178.829 49.5503 178.439 49.7526 178.158C49.9549 177.878 50.3477 177.813 50.6297 178.015L50.9482 178.243C51.2302 178.444 51.2948 178.835 51.0925 179.115C50.9698 179.286 50.7771 179.376 50.5813 179.376Z" fill="#212121"/>
<path d="M56.1937 173.14C56.0548 173.14 55.9149 173.094 55.7987 173.001L55.52 172.776C55.2498 172.558 55.2089 172.164 55.4274 171.897C55.6459 171.628 56.0419 171.587 56.311 171.805L56.5897 172.03C56.8598 172.247 56.9007 172.641 56.6823 172.909C56.5585 173.061 56.3766 173.14 56.1937 173.14Z" fill="#212121"/>
<path d="M61.7942 194.002C61.7684 194.002 61.7436 194.001 61.7189 193.998C61.4703 193.978 61.2529 193.859 61.1087 193.663C60.4813 192.801 60.1541 190.384 60.0949 189.907C60.0529 189.565 60.2972 189.253 60.6416 189.21C60.9828 189.168 61.2992 189.411 61.3422 189.754C61.4531 190.647 61.7081 191.993 61.9793 192.649C62.4485 192.363 63.3902 191.526 64.7882 190.151C65.2025 189.743 65.6395 189.308 66.0915 188.857C67.2409 187.711 68.5431 186.411 69.7915 185.259C71.4596 183.72 79.0349 180.479 92.3055 175.626C102.14 172.03 111.623 168.83 111.718 168.798C112.047 168.687 112.404 168.862 112.514 169.19C112.625 169.517 112.45 169.872 112.121 169.982C112.026 170.014 102.556 173.209 92.736 176.801C76.4025 182.773 71.7071 185.195 70.6449 186.176C69.4137 187.311 68.1761 188.545 66.9804 189.739C66.5273 190.192 66.0882 190.629 65.6718 191.04C63.3698 193.302 62.4625 194.002 61.7942 194.002Z" fill="#212121"/>
<path d="M133.671 129.153H130.502C130.155 129.153 129.873 128.873 129.873 128.528C129.873 128.183 130.154 127.902 130.502 127.902H133.671C134.018 127.902 134.3 128.182 134.3 128.528C134.3 128.873 134.018 129.153 133.671 129.153Z" fill="#212121"/>
<path d="M167.031 164.259C166.745 164.259 166.465 164.252 166.19 164.241C165.843 164.226 165.574 163.933 165.589 163.589C165.604 163.244 165.906 162.981 166.245 162.991C168.721 163.099 171.672 162.689 175.015 161.775C178.145 160.916 181.601 159.637 185.581 157.865C191.826 155.084 198.305 151.502 204.019 148.342C209.799 145.144 214.792 142.384 218.589 140.922C222.736 139.325 226.059 139.615 226.198 139.628C226.361 139.643 226.512 139.722 226.617 139.847C226.733 139.983 229.541 143.181 234.016 142.454C236.819 142.001 240.579 140.427 244.561 138.761C247.357 137.591 250.247 136.381 252.92 135.523C254.59 134.987 256.642 134.478 258.816 133.939C261.181 133.354 263.625 132.749 265.461 132.119C268.139 131.202 268.3 130.63 268.309 130.568C268.318 130.509 268.218 130.282 267.654 129.94C265.111 128.401 252.66 126.746 236.961 126.768C232.879 126.775 229.804 126.659 227.338 126.567C224.336 126.454 222.351 126.38 220.756 126.613C219.8 126.752 218.807 126.915 217.756 127.088C216.776 127.249 215.763 127.415 214.714 127.573C214.37 127.625 214.052 127.39 213.999 127.048C213.947 126.707 214.183 126.389 214.526 126.337C215.566 126.181 216.575 126.015 217.55 125.856C218.607 125.682 219.606 125.518 220.573 125.377C222.283 125.127 224.313 125.204 227.385 125.318C229.84 125.41 232.888 125.527 236.958 125.518C237.039 125.518 237.123 125.518 237.204 125.518C251.559 125.518 265.189 126.985 268.306 128.873C269.237 129.436 269.657 130.07 269.551 130.757C269.277 132.55 265.408 133.596 259.119 135.154C256.966 135.687 254.933 136.19 253.304 136.714C250.683 137.555 247.817 138.754 245.046 139.915C240.994 141.611 237.167 143.213 234.216 143.689C229.663 144.428 226.618 141.661 225.846 140.862C225.05 140.831 222.296 140.835 219.04 142.089C215.325 143.519 210.367 146.26 204.627 149.435C198.89 152.608 192.387 156.205 186.092 159.007C182.054 160.806 178.539 162.106 175.346 162.982C172.245 163.831 169.453 164.259 167.031 164.259Z" fill="#212121"/>
<path d="M147.853 135.569C147.534 135.569 147.261 135.329 147.228 135.007C147.193 134.663 147.445 134.357 147.79 134.322C147.902 134.31 159.156 133.171 173.228 131.577C173.579 131.538 173.885 131.785 173.923 132.128C173.962 132.47 173.715 132.781 173.37 132.819C159.289 134.414 148.029 135.554 147.916 135.566C147.896 135.569 147.874 135.569 147.853 135.569Z" fill="#212121"/>
<path d="M181.577 217.686C181.47 217.686 181.362 217.659 181.262 217.601C174.212 213.529 167.095 207.893 160.107 200.847C157.084 197.801 154.107 194.503 151.26 191.045C149.921 189.421 148.605 187.755 147.348 186.095C145.744 183.981 144.175 181.79 142.681 179.585C141.162 177.343 139.725 175.091 138.41 172.892C137.329 171.086 136.378 169.238 135.581 167.401C135.443 167.084 135.589 166.716 135.908 166.58C136.226 166.443 136.596 166.589 136.733 166.906C137.509 168.694 138.436 170.493 139.488 172.252C140.79 174.431 142.215 176.664 143.722 178.886C145.203 181.074 146.759 183.246 148.35 185.343C149.596 186.991 150.901 188.643 152.229 190.254C155.053 193.682 158.003 196.95 160.999 199.97C167.908 206.937 174.937 212.506 181.89 216.521C182.191 216.694 182.293 217.077 182.119 217.375C182.005 217.573 181.794 217.686 181.577 217.686Z" fill="#212121"/>
<path d="M136.16 167.772C135.916 167.772 135.685 167.631 135.583 167.394C129.505 153.377 133.376 142.954 133.544 142.517C133.668 142.195 134.032 142.034 134.356 142.156C134.68 142.279 134.842 142.641 134.719 142.963C134.667 143.1 130.882 153.398 136.736 166.899C136.874 167.216 136.727 167.585 136.408 167.721C136.327 167.756 136.242 167.772 136.16 167.772Z" fill="#212121"/>
<path d="M168.618 214.407C168.426 214.407 168.237 214.32 168.113 214.155C165.222 210.288 163.964 204.617 163.912 204.378C163.838 204.041 164.054 203.708 164.393 203.635C164.734 203.562 165.066 203.777 165.14 204.114C165.151 204.17 166.395 209.763 169.121 213.41C169.328 213.687 169.271 214.078 168.992 214.285C168.879 214.366 168.748 214.407 168.618 214.407Z" fill="#212121"/>
<path d="M183.666 230.716C174.429 230.716 166.925 229.162 166.841 229.144C166.655 229.104 166.496 228.983 166.41 228.814C160.479 217.145 159.932 200.591 159.927 200.426C159.918 200.081 160.19 199.793 160.536 199.783C160.896 199.776 161.173 200.044 161.183 200.39C161.188 200.551 161.72 216.578 167.396 227.979C169.076 228.302 177.692 229.841 187.318 229.379C193.562 229.079 199.003 228.009 203.488 226.197C209.04 223.954 213.133 220.56 215.653 216.109C216.902 213.902 217.481 211.525 217.375 209.041C216.841 196.457 199.392 182.93 186.652 173.052C185.214 171.938 183.856 170.884 182.584 169.88C181.332 168.891 180.278 168.041 179.364 167.279C177.053 165.348 175.566 163.912 174.683 162.757C174.6 162.648 174.555 162.515 174.555 162.378C174.555 162.034 174.836 161.752 175.184 161.752C175.402 161.752 175.595 161.862 175.707 162.03C176.534 163.104 177.955 164.468 180.172 166.321C181.077 167.076 182.122 167.919 183.365 168.9C184.633 169.901 185.99 170.953 187.424 172.065C200.358 182.092 218.071 195.825 218.631 208.986C218.748 211.706 218.114 214.308 216.749 216.721C214.084 221.428 209.777 225.008 203.948 227.36C199.327 229.224 193.744 230.324 187.353 230.629C186.103 230.689 184.869 230.716 183.666 230.716Z" fill="#212121"/>
<path d="M218.016 209.639C217.87 209.639 217.723 209.588 217.604 209.486C217.343 209.259 217.315 208.865 217.543 208.603C220.318 205.427 220.79 194.018 211.748 184.437C206.983 179.387 194.149 167.168 188.852 162.148C186.749 160.157 185.405 158.889 185.405 158.889C185.153 158.651 185.143 158.256 185.382 158.006C185.621 157.755 186.019 157.744 186.27 157.982C186.27 157.982 187.615 159.25 189.719 161.243C195.023 166.269 207.876 178.508 212.664 183.582C216.694 187.852 219.399 193.153 220.283 198.508C221.041 203.108 220.355 207.291 218.491 209.424C218.366 209.566 218.192 209.639 218.016 209.639Z" fill="#212121"/>
<path d="M65.0863 191.27C64.8269 191.27 64.5848 191.11 64.4933 190.853C64.3781 190.527 64.5503 190.17 64.8775 190.056L65.0195 190.006C67.4173 189.148 79.6902 184.726 85.4888 181.945C86.1916 181.607 86.9008 181.258 87.6068 180.907L88.4774 180.473C94.1156 177.664 99.4428 175.01 103.516 176.129C107.941 177.345 110.8 178.894 110.919 178.959C111.224 179.125 111.335 179.505 111.168 179.808C111.001 180.11 110.619 180.222 110.315 180.056C110.287 180.041 107.455 178.508 103.181 177.335C99.5708 176.342 94.2168 179.011 89.0392 181.591L88.1675 182.025C87.4561 182.378 86.7426 182.729 86.0344 183.071C80.1788 185.878 67.8521 190.321 65.4403 191.183L65.2929 191.234C65.2251 191.26 65.1551 191.27 65.0863 191.27Z" fill="#212121"/>
<path d="M147.853 186.342C147.832 186.342 147.808 186.341 147.788 186.339L130.839 184.631C130.493 184.596 130.243 184.29 130.277 183.946C130.313 183.602 130.618 183.352 130.966 183.387L147.908 185.094C148.229 185.123 148.482 185.39 148.482 185.717C148.48 186.063 148.2 186.342 147.853 186.342Z" fill="#212121"/>
<path d="M166.971 229.157C166.895 229.157 166.817 229.143 166.742 229.113C166.667 229.085 159.135 226.166 151.123 225.232L150.538 225.164C149.736 225.07 148.811 224.962 147.784 224.847C128.344 222.64 114.666 222.165 107.127 223.432C95.3038 225.418 78.0641 225.394 77.8844 225.396C77.5379 225.395 77.257 225.114 77.2581 224.77C77.2591 224.425 77.54 224.146 77.8866 224.146C77.8909 224.148 77.907 224.146 77.9447 224.146C79.0392 224.146 95.5373 224.112 106.918 222.2C114.573 220.913 128.37 221.385 147.926 223.605C148.954 223.72 149.881 223.828 150.684 223.922L151.269 223.99C159.45 224.944 167.125 227.92 167.201 227.95C167.524 228.076 167.684 228.439 167.557 228.76C167.459 229.006 167.222 229.157 166.971 229.157Z" fill="#212121"/>
<path d="M147.854 224.851C147.804 224.851 147.753 224.845 147.704 224.833C147.367 224.75 147.16 224.412 147.243 224.077C147.256 224.025 148.513 218.892 149.614 212.232C150.627 206.105 151.711 197.395 151.121 190.702C151.119 190.684 151.119 190.666 151.119 190.648C151.119 190.303 151.4 190.021 151.747 190.021C152.082 190.021 152.355 190.281 152.375 190.608C152.973 197.431 151.878 206.248 150.854 212.445C149.745 219.15 148.478 224.323 148.465 224.374C148.393 224.66 148.137 224.851 147.854 224.851Z" fill="#212121"/>
<path d="M91.5532 187.809C91.5059 187.809 91.4564 187.803 91.4079 187.791C91.07 187.712 90.8612 187.375 90.9409 187.039C91.8212 183.332 88.4775 182.263 87.7499 182.077L87.7295 182.073C87.3894 182.006 87.1677 181.678 87.2345 181.339C87.3012 181.001 87.6316 180.779 87.9716 180.846L88.0082 180.853C88.0201 180.855 88.0308 180.858 88.0427 180.861C88.3967 180.95 89.6344 181.313 90.6966 182.234C91.7093 183.114 92.7855 184.711 92.1645 187.327C92.0956 187.615 91.8373 187.809 91.5532 187.809Z" fill="#212121"/>
<path d="M130.394 183.134C130.176 183.134 129.964 183.021 129.848 182.819C129.677 182.519 129.781 182.138 130.082 181.966C130.398 181.786 137.711 177.476 135.544 167.281C135.535 167.239 135.53 167.196 135.53 167.152C135.53 166.807 135.811 166.524 136.158 166.524C136.474 166.524 136.735 166.754 136.779 167.054C137.998 172.831 136.296 176.865 134.653 179.234C132.864 181.812 130.79 183.004 130.703 183.053C130.606 183.108 130.5 183.134 130.394 183.134Z" fill="#212121"/>
<path d="M192.432 142.541C189.577 142.541 186.315 141.567 182.689 139.627C178.7 137.492 175.155 134.664 172.884 132.668C171.716 131.641 171.037 130.967 171.008 130.939C170.763 130.695 170.763 130.299 171.008 130.054C171.253 129.81 171.652 129.81 171.897 130.054C171.903 130.061 172.58 130.733 173.716 131.731C177.695 135.227 187.755 143.121 195.195 140.907C200.259 139.401 203.306 135.769 205.994 132.564C208.449 129.638 210.768 126.873 214.158 126.395C214.266 126.38 214.37 126.363 214.476 126.347L214.522 126.339C218.711 125.666 221.467 123.875 221.458 123.33C221.456 123.33 220.931 122.474 215.696 122.76C209.692 123.088 206.826 122.737 205.287 122.548C204.854 122.494 204.443 122.444 204.286 122.462C204.264 122.506 204.225 122.596 204.165 122.784C203.626 124.448 201.605 125.126 199.265 125.911C197.674 126.444 195.871 127.048 194.331 128.036C192.694 129.081 191.597 130.41 190.974 132.099C190.854 132.423 190.493 132.589 190.168 132.471C189.841 132.352 189.675 131.992 189.794 131.669C190.515 129.715 191.776 128.183 193.651 126.986C195.321 125.914 197.203 125.283 198.863 124.727C200.881 124.05 202.624 123.465 202.968 122.402C203.403 121.057 204.042 121.135 205.441 121.308C206.942 121.492 209.736 121.835 215.628 121.512C220.306 121.256 222.556 121.793 222.708 123.199C222.924 125.182 218.209 127.014 214.723 127.575L214.677 127.582C214.563 127.6 214.45 127.619 214.336 127.635C211.425 128.046 209.356 130.512 206.959 133.367C204.158 136.707 200.982 140.492 195.556 142.106C194.577 142.395 193.534 142.541 192.432 142.541Z" fill="#212121"/>
<path d="M133.744 131.121C133.411 131.121 133.134 130.862 133.117 130.529C133.081 129.834 133.056 129.165 133.043 128.541C132.99 126.333 133.077 124.478 133.308 122.869C133.429 122.033 133.592 121.244 133.791 120.522C134.757 117.045 136.756 114.565 139.903 112.94C141.337 112.198 142.929 111.734 144.632 111.563C146.176 111.409 147.796 111.491 149.45 111.809C151.424 112.184 152.81 112.772 153.106 112.903C155.211 113.441 156.846 113.926 158.29 114.353C164.084 116.068 165.831 116.586 178.018 114.502C188.499 112.709 192.334 119.329 193.688 123.434C194.39 125.573 194.507 127.238 194.512 127.309C194.535 127.653 194.273 127.951 193.927 127.974C193.584 127.994 193.282 127.736 193.258 127.391C193.257 127.375 193.144 125.802 192.494 123.822C190.995 119.276 187.304 114.181 178.231 115.733C165.755 117.867 163.783 117.282 157.932 115.55C156.487 115.122 154.849 114.637 152.741 114.099C152.703 114.09 152.665 114.076 152.63 114.06C152.617 114.053 151.236 113.418 149.213 113.035C147.678 112.74 146.181 112.663 144.759 112.806C143.215 112.961 141.776 113.38 140.483 114.049C137.623 115.525 135.883 117.688 135.004 120.854C134.819 121.526 134.667 122.264 134.552 123.048C134.331 124.586 134.248 126.374 134.3 128.514C134.312 129.128 134.336 129.783 134.372 130.464C134.39 130.809 134.124 131.103 133.778 131.121C133.766 131.121 133.754 131.121 133.744 131.121Z" fill="#212121"/>
<path d="M144.696 112.809C144.4 112.809 144.136 112.6 144.079 112.299C144.015 111.96 144.24 111.633 144.58 111.569C145.415 111.411 146.16 109.729 146.141 108.039C146.131 107.064 145.856 106.339 145.473 106.276C144.095 106.049 143.368 108.636 143.361 108.663C143.273 108.997 142.928 109.196 142.593 109.107C142.257 109.019 142.057 108.677 142.146 108.343C142.513 106.96 143.67 104.711 145.68 105.043C146.738 105.218 147.38 106.333 147.398 108.026C147.421 110.1 146.522 112.477 144.813 112.798C144.773 112.804 144.735 112.809 144.696 112.809Z" fill="#212121"/>
<path d="M128.863 114.814C128.79 114.814 128.715 114.802 128.642 114.775C128.318 114.654 128.154 114.297 128.274 113.974C128.287 113.939 129.628 110.469 133.627 111.581C133.961 111.674 134.157 112.019 134.063 112.351C133.969 112.683 133.624 112.877 133.289 112.784C130.472 112.001 129.548 114.161 129.453 114.411C129.356 114.66 129.117 114.814 128.863 114.814Z" fill="#212121"/>
<path d="M126.804 120.038C126.351 120.038 125.944 119.949 125.694 119.703C125.423 119.437 125.357 119.061 125.511 118.67C125.754 118.052 125.571 116.992 125.488 116.67C125.402 116.336 125.604 115.994 125.94 115.908C126.275 115.823 126.618 116.024 126.705 116.358C126.744 116.509 127.046 117.746 126.787 118.793C127.299 118.782 128.275 118.574 128.924 118.316C129.246 118.188 129.612 118.343 129.741 118.664C129.87 118.985 129.714 119.349 129.391 119.477C129.371 119.485 127.94 120.038 126.804 120.038Z" fill="#212121"/>
<path d="M131.161 116.074C131.107 116.074 131.053 116.068 130.998 116.053C130.664 115.964 130.465 115.626 130.553 115.295C130.59 115.15 130.811 114.416 131.435 114.153C131.677 114.051 132.062 113.986 132.528 114.252C132.83 114.423 132.934 114.805 132.762 115.105C132.59 115.405 132.206 115.509 131.904 115.337C131.903 115.336 131.902 115.336 131.901 115.335C131.854 115.397 131.794 115.517 131.768 115.614C131.69 115.891 131.436 116.074 131.161 116.074Z" fill="#212121"/>
<path d="M119.911 107.277C119.799 107.277 119.696 107.27 119.599 107.258C119.222 107.207 118.939 106.988 118.822 106.657C118.656 106.186 118.665 105.458 120.89 102.785C121.501 102.052 122.118 101.365 122.553 100.892C122.136 100.642 121.689 100.263 121.508 99.7326C121.384 99.3729 121.337 98.8033 121.809 98.1362C122.655 96.937 124.657 96.149 125.788 95.7828C125.611 95.3791 125.47 94.8641 125.574 94.3587C125.672 93.8876 125.963 93.5032 126.416 93.2473C127.77 92.4839 132.314 92.2815 132.829 92.2612C133.172 92.2483 133.468 92.516 133.482 92.8608C133.496 93.2056 133.226 93.4968 132.879 93.5107C131.056 93.5835 127.857 93.8726 127.037 94.3352C126.863 94.4337 126.822 94.53 126.805 94.6114C126.73 94.9733 127.064 95.5665 127.227 95.7817C127.354 95.9487 127.389 96.1672 127.32 96.3642C127.251 96.5612 127.087 96.7121 126.884 96.7635C126.011 96.9873 123.582 97.8011 122.838 98.8557C122.635 99.1427 122.683 99.2829 122.698 99.329C122.814 99.6652 123.467 99.9896 123.791 100.089C123.999 100.153 124.159 100.319 124.214 100.529C124.269 100.739 124.211 100.962 124.06 101.118C122.362 102.886 120.544 105.088 120.118 106.016C120.445 105.985 120.989 105.875 121.881 105.578C123.697 104.968 125.767 103.962 125.787 103.951C126.099 103.799 126.475 103.927 126.628 104.237C126.78 104.547 126.652 104.921 126.34 105.073C126.253 105.116 124.178 106.126 122.281 106.762C121.239 107.11 120.474 107.277 119.911 107.277ZM119.766 106.019C119.767 106.019 119.767 106.019 119.766 106.019C119.767 106.019 119.767 106.019 119.766 106.019Z" fill="#212121"/>
<path d="M121.406 125.988C121.106 125.988 120.841 125.773 120.788 125.47C120.777 125.406 120.521 123.894 121.026 122.688C121.169 122.331 121.377 122.022 121.641 121.774C122.751 120.731 124.625 121.583 125.43 122.031C126.333 121.472 128.771 120.195 130.711 121.317C131.412 121.722 132.154 122.196 132.558 122.686L133.764 122.356C134.099 122.265 134.444 122.459 134.537 122.792C134.629 123.125 134.432 123.469 134.098 123.561L132.384 124.031C132.138 124.099 131.876 124.012 131.72 123.811C131.645 123.714 131.602 123.601 131.592 123.485C131.5 123.369 131.166 123.024 130.081 122.398C128.432 121.444 125.843 123.257 125.817 123.275C125.606 123.428 125.322 123.435 125.105 123.294C124.329 122.792 122.966 122.252 122.505 122.684C122.375 122.806 122.269 122.966 122.192 123.16C121.826 124.035 122.027 125.246 122.029 125.257C122.087 125.597 121.858 125.92 121.516 125.979C121.477 125.985 121.441 125.988 121.406 125.988ZM131.671 123.117C131.66 123.135 131.651 123.153 131.643 123.172C131.651 123.152 131.661 123.134 131.671 123.117Z" fill="#212121"/>
<path d="M112.555 126.746C112.216 126.746 111.936 126.477 111.928 126.137C111.913 125.565 112.127 125.062 112.549 124.682C113.232 124.065 114.386 123.866 115.375 123.821C115.153 123.412 115.08 122.974 115.208 122.583C115.378 122.06 115.937 121.601 116.991 121.878C118.513 122.279 121.577 122.302 121.607 122.302C121.954 122.305 122.233 122.586 122.231 122.932C122.229 123.276 121.948 123.553 121.603 123.553C121.602 123.553 121.6 123.553 121.598 123.553C121.466 123.552 118.343 123.527 116.669 123.087C116.554 123.057 116.468 123.047 116.411 123.045C116.462 123.251 116.725 123.691 117.326 123.922C117.622 124.037 117.786 124.352 117.708 124.658C117.631 124.964 117.334 125.163 117.021 125.126C115.968 124.996 114.05 125.013 113.391 125.609C113.242 125.744 113.178 125.897 113.184 126.105C113.192 126.449 112.919 126.736 112.572 126.746C112.566 126.746 112.561 126.746 112.555 126.746Z" fill="#212121"/>
<path d="M236.961 126.77C236.618 126.77 236.338 126.495 236.332 126.154C236.327 125.809 236.604 125.524 236.951 125.52C239.405 125.484 240.28 124.463 241.49 123.05C242.955 121.341 244.777 119.215 249.899 118.13C257.071 116.608 262.567 113.622 263.441 112.522C263.353 112.505 263.234 112.492 263.073 112.484C259.072 112.317 244.941 112.996 227.314 114.981C209.854 116.948 193.51 124.126 193.348 124.198C193.031 124.337 192.659 124.197 192.518 123.881C192.377 123.565 192.519 123.196 192.836 123.055C193.001 122.982 209.523 115.726 227.173 113.738C244.866 111.745 259.088 111.066 263.125 111.235C264.44 111.289 264.763 111.836 264.801 112.287C264.884 113.265 263.356 114.509 260.257 115.983C257.301 117.39 253.621 118.618 250.161 119.352C245.457 120.348 243.858 122.214 242.447 123.86C241.185 125.333 239.992 126.724 236.97 126.77C236.967 126.77 236.964 126.77 236.961 126.77Z" fill="#212121"/>
<path d="M156.118 182.734C148.237 182.734 144.141 180.584 142.861 179.757C142.618 179.601 142.49 179.5 142.476 179.49C142.205 179.274 142.159 178.881 142.376 178.612C142.591 178.343 142.985 178.297 143.257 178.51C143.258 178.511 143.354 178.585 143.544 178.707C149.966 182.853 162.065 181.149 164.425 180.766C176.274 178.841 181.883 173.609 182.636 170.764C182.748 170.341 182.726 169.992 182.58 169.876C182.31 169.659 182.267 169.266 182.483 168.997C182.701 168.728 183.096 168.684 183.367 168.9C183.694 169.161 184.192 169.793 183.851 171.082C182.985 174.355 177.151 179.965 164.628 181.999C161.404 182.525 158.576 182.734 156.118 182.734Z" fill="#212121"/>
<path d="M179.765 167.422C179.464 167.422 179.198 167.206 179.146 166.9C179.089 166.559 179.321 166.237 179.663 166.18C179.694 166.175 182.778 165.655 185.631 164.666C188.178 163.786 188.652 161.661 188.671 161.571C188.742 161.234 189.073 161.017 189.411 161.085C189.75 161.153 189.969 161.48 189.903 161.817C189.879 161.935 189.29 164.725 186.045 165.847C183.088 166.873 180 167.392 179.871 167.414C179.834 167.42 179.8 167.422 179.765 167.422Z" fill="#212121"/>
<path d="M39.1908 227.954C31.1935 227.954 25.565 225.628 24.4856 223.02C24.2068 222.347 23.9722 221.022 25.5327 219.713L25.9428 219.369C29.9301 216.034 34.8914 211.883 32.2654 205.293C30.7749 201.553 29.5835 195.283 29.2295 189.318C28.9895 185.27 28.9518 177.959 31.3905 174.471C34.8494 169.522 38.9002 168.076 39.9516 167.771C40.6038 166.886 43.3653 164.041 51.0419 165.701C55.3973 166.645 55.1691 169.175 55.1573 169.282C55.1196 169.625 54.8107 169.873 54.4642 169.835C54.1241 169.797 53.8766 169.496 53.9067 169.158C53.911 169.07 53.9272 167.604 50.775 166.921C42.9467 165.226 40.9116 168.584 40.8922 168.617C40.8051 168.769 40.6533 168.884 40.4811 168.922C40.4392 168.932 36.0536 169.988 32.4226 175.183C28.8732 180.259 30.4639 197.381 33.4331 204.831C36.3937 212.258 30.8212 216.92 26.7521 220.324L26.3431 220.667C25.2508 221.583 25.5489 222.305 25.6479 222.543C26.5508 224.725 32.9337 227.334 42.5733 226.564C43.5666 226.485 44.5707 226.406 45.5759 226.327C50.5328 225.937 55.6577 225.534 59.5847 225.049C64.6784 224.421 65.9871 223.852 66.3228 223.597C66.3185 223.593 66.3131 223.59 66.3088 223.586C66.0441 223.362 66.0118 222.968 66.2357 222.704C66.4606 222.441 66.8566 222.409 67.1214 222.632C67.7337 223.148 67.6831 223.661 67.5992 223.921C67.3129 224.804 65.9548 225.501 60.0798 226.247C56.0785 226.755 50.79 227.17 45.6749 227.573C44.6697 227.652 43.6667 227.73 42.6733 227.811C41.4702 227.909 40.3068 227.954 39.1908 227.954Z" fill="#212121"/>
<path d="M53.2632 206.882C52.9629 206.882 52.6981 206.668 52.6454 206.364C51.6499 200.656 46.3443 197.946 45.225 197.434C43.9121 197.872 38.7108 199.397 37.3214 196.563C36.7779 195.451 36.9996 194.638 37.2805 194.151C38.0199 192.87 39.9624 192.399 41.0192 192.234C40.5306 188.151 42.8036 182.263 44.4878 177.901C44.6977 177.359 44.8968 176.842 45.0776 176.362C46.6208 172.275 43.9928 167.985 43.9659 167.943C43.7829 167.649 43.8733 167.264 44.1671 167.082C44.462 166.9 44.8483 166.989 45.0324 167.281C45.1551 167.477 48.0188 172.127 46.2539 176.801C46.072 177.285 45.8707 177.803 45.6598 178.349C44.0337 182.559 41.5778 188.921 42.3569 192.648C42.3935 192.825 42.3526 193.008 42.2439 193.152C42.1353 193.295 41.9695 193.385 41.7887 193.399C41.0763 193.454 38.9163 193.822 38.3675 194.774C38.2975 194.896 38.0834 195.267 38.4493 196.015C39.3081 197.766 43.601 196.69 45.0378 196.175C45.183 196.124 45.3413 196.126 45.4844 196.183C45.7771 196.299 52.6551 199.114 53.882 206.15C53.9412 206.491 53.7119 206.814 53.3708 206.873C53.3353 206.879 53.2987 206.882 53.2632 206.882Z" fill="#212121"/>
<path d="M32.1707 182.289C31.8845 182.289 31.6251 182.093 31.5584 181.804C31.4809 181.468 31.6918 181.132 32.0308 181.055C32.7347 180.894 33.4816 180.516 34.2037 180.151C34.3296 180.087 34.4544 180.023 34.5771 179.962C36.3894 179.061 37.9036 177.903 39.5061 176.68C40.0582 176.258 40.6286 175.822 41.213 175.397C41.4928 175.194 41.8867 175.253 42.0911 175.532C42.2956 175.81 42.2353 176.202 41.9555 176.406C41.3819 176.823 40.818 177.254 40.2724 177.671C38.6936 178.878 37.0599 180.125 35.14 181.08C35.0194 181.14 34.8978 181.201 34.7741 181.264C34.0207 181.646 33.1673 182.078 32.3117 182.273C32.2644 182.284 32.217 182.289 32.1707 182.289Z" fill="white"/>
<path d="M43.5505 175.085C43.4052 175.085 43.2578 175.035 43.1394 174.932C42.8768 174.706 42.8488 174.311 43.0759 174.051C43.1674 173.945 43.2664 173.846 43.3643 173.747C43.4784 173.632 43.586 173.524 43.6689 173.416C43.8777 173.14 44.2716 173.084 44.5481 173.291C44.8258 173.497 44.8818 173.889 44.6741 174.166C44.5395 174.343 44.3889 174.494 44.2565 174.628C44.1779 174.707 44.0994 174.786 44.0262 174.869C43.9013 175.013 43.7259 175.085 43.5505 175.085Z" fill="white"/>
<path d="M30.6016 220.631C30.4714 220.631 30.3401 220.59 30.2271 220.508C29.9484 220.302 29.8902 219.91 30.098 219.633C30.7846 218.714 31.5853 217.902 32.3601 217.116C33.4094 216.05 34.4006 215.044 35.112 213.813C36.0127 212.254 36.0095 210.747 36.0063 208.84V208.505C36.0063 208.16 36.2872 207.88 36.6348 207.88C36.9824 207.88 37.2633 208.159 37.2633 208.505V208.838C37.2665 210.849 37.2697 212.586 36.2022 214.436C35.4111 215.806 34.3166 216.917 33.2587 217.992C32.514 218.748 31.7435 219.53 31.1085 220.38C30.9837 220.543 30.7943 220.631 30.6016 220.631Z" fill="white"/>
<path d="M35.5027 206.127C35.2304 206.127 34.9796 205.95 34.9 205.677C34.7364 205.118 34.5223 204.561 34.3146 204.023C33.8227 202.75 33.3137 201.434 33.3686 199.855C33.3804 199.51 33.6699 199.241 34.0175 199.251C34.3641 199.263 34.6353 199.552 34.6234 199.897C34.5782 201.221 35.0195 202.364 35.4865 203.574C35.7039 204.136 35.9278 204.717 36.1064 205.327C36.2033 205.658 36.0117 206.005 35.6781 206.101C35.62 206.12 35.5608 206.127 35.5027 206.127Z" fill="white"/>
</g>
<defs>
<clipPath id="clip0_14_267">
<rect width="316" height="154.544" fill="white" transform="translate(0 91.8379)"/>
</clipPath>
</defs>
</svg>
